<svg width="41" height="40" viewBox="0 0 41 40" fill="none" xmlns="http://www.w3.org/2000/svg">
<path fill-rule="evenodd" clip-rule="evenodd" d="M39.8749 15.8186C40.578 11.9519 39.8749 2.58763 29.9373 0.223911C27.1888 -0.429817 20.5778 -0.0880712 14.7186 7.36285C13.1768 6.46048 11.3893 5.95291 9.47079 5.95291C5.55068 5.95291 1.95943 8.06828 0.581992 11.5783C-1.27147 16.3511 1.10268 22.1461 10.5939 24.6067C9.5019 23.3588 4.61793 20.0369 4.96943 16.1701C5.18379 13.8123 7.43012 12.3034 9.04353 11.759C11.6413 10.8825 15.3426 11.1433 18.2379 13.7952C20.3208 9.33406 24.3033 7.38201 27.22 6.67899C32.7399 5.62438 38.8204 8.08506 39.8749 15.8186Z" fill="#147AFF"/>
<path fill-rule="evenodd" clip-rule="evenodd" d="M20.9121 12.6652C22.3706 11.5763 23.9449 10.9358 25.4933 10.6863C34.6798 9.65549 36.4767 16.0124 35.4598 19.4442C35.2694 20.087 34.5239 22.564 32.808 23.8119C34.5239 23.344 36.3958 21.5997 37.0197 20.6921C40.4515 15.7004 37.0581 7.9685 29.3254 8.3737C26.1535 8.53785 23.1914 10.3092 20.9121 12.6652Z" fill="#147AFF"/>
<path opacity="0.5" fill-rule="evenodd" clip-rule="evenodd" d="M29.2595 10.7094C29.4155 9.77345 30.4022 9.49195 30.9106 9.33289C32.2741 9.024 34.4475 9.60418 35.6551 10.3974C33.6273 8.68154 31.4965 8.25249 29.2595 8.36956C26.0876 8.5337 23.166 10.3366 20.8867 12.6927C22.3452 11.6038 23.9195 10.9633 25.4679 10.7138C27.0519 10.5458 28.1675 10.5534 29.2595 10.7094Z" fill="#147AFF"/>
<path d="M9.10938 34.1621L25.2108 15.7539H31.7657L15.8355 34.1621H9.10938Z" fill="#147AFF"/>
<path d="M21.3125 30.8783L29.3731 40.0001H35.928L24.7515 26.8662L21.3125 30.8783Z" fill="#147AFF"/>
<path d="M8.93945 15.793L15.7511 23.6465L19.1901 19.6344L15.6655 15.793H8.93945Z" fill="#147AFF"/>
</svg>
